<?xml version="1.0" encoding="UTF-8" standalone="no"?>
<!DOCTYPE svg PUBLIC "-//W3C//DTD SVG 1.1//EN" "http://www.w3.org/Graphics/SVG/1.1/DTD/svg11.dtd">
<svg xmlns="http://www.w3.org/2000/svg" version="1.1" viewBox="0.00 0.00 120.00 104.00">
<g stroke-width="2.00" fill="none" stroke-linecap="butt">
<path stroke="#848281" vector-effect="non-scaling-stroke" d="
  M 46.92 0.00
  L 45.96 0.29
  A 0.49 0.49 0.0 0 0 45.73 1.09
  Q 48.48 4.24 50.11 8.42
  A 1.66 1.65 -40.8 0 1 50.00 9.87
  Q 33.17 38.86 26.74 49.99
  Q 25.65 51.88 26.62 53.66
  Q 32.37 64.17 38.74 74.67"
/>
<path stroke="#bfbfbf" vector-effect="non-scaling-stroke" d="
  M 38.74 74.67
  Q 35.73 75.39 33.00 75.10
  A 0.87 0.86 -86.7 0 0 32.04 75.96
  L 32.04 78.09
  A 0.88 0.87 0.0 0 0 32.92 78.96
  L 39.10 78.96
  A 0.97 0.96 90.0 0 1 40.06 79.93
  L 40.06 96.93
  A 1.11 1.11 0.0 0 0 41.17 98.04
  L 44.90 98.04
  A 1.12 1.12 0.0 0 0 46.01 96.74
  Q 45.36 92.51 46.86 88.45"
/>
<path stroke="#8b8681" vector-effect="non-scaling-stroke" d="
  M 46.86 88.45
  L 49.83 94.38
  A 2.09 2.07 35.9 0 1 50.03 95.60
  Q 49.82 96.98 48.66 98.56
  A 2.83 2.83 0.0 0 0 48.19 99.64
  Q 47.77 101.87 46.20 102.92
  A 0.47 0.47 0.0 0 0 46.31 103.75
  L 47.02 104.00"
/>
<path stroke="#bfbfbf" vector-effect="non-scaling-stroke" d="
  M 0.00 97.87
  L 6.68 97.94
  A 0.30 0.30 0.0 0 0 6.98 97.64
  L 6.98 94.37
  A 0.28 0.28 0.0 0 0 6.70 94.09
  L 0.00 94.17"
/>
<path stroke="#bfbfbf" vector-effect="non-scaling-stroke" d="
  M 0.00 87.81
  L 5.35 87.86
  A 0.64 0.64 0.0 0 0 6.00 87.22
  L 6.00 84.82
  A 0.69 0.68 89.2 0 0 5.30 84.13
  L 0.00 84.23"
/>
<path stroke="#bfbfbf" vector-effect="non-scaling-stroke" d="
  M 0.00 78.85
  L 6.36 78.87
  A 0.65 0.65 0.0 0 0 7.01 78.22
  L 7.01 75.76
  A 0.63 0.63 0.0 0 0 6.37 75.13
  L 0.00 75.24"
/>
<path stroke="#bfbfbf" vector-effect="non-scaling-stroke" d="
  M 11.08 86.53
  C 11.09 97.23 21.96 99.83 30.21 96.75
  A 1.21 1.21 0.0 0 0 31.00 95.62
  L 31.00 92.83
  A 0.52 0.52 0.0 0 0 30.22 92.39
  C 24.68 95.65 17.04 94.40 17.02 86.52
  C 17.01 78.64 24.65 77.36 30.20 80.61
  A 0.52 0.52 0.0 0 0 30.98 80.16
  L 30.97 77.37
  A 1.21 1.21 0.0 0 0 30.18 76.24
  C 21.92 73.20 11.06 75.83 11.08 86.53"
/>
<path stroke="#848281" vector-effect="non-scaling-stroke" d="
  M 49.14 0.00
  Q 49.46 0.40 50.79 0.38"
/>
<path stroke="#826a45" vector-effect="non-scaling-stroke" d="
  M 50.79 0.38
  L 54.59 6.45
  A 0.81 0.78 -15.7 0 0 55.26 6.81
  L 100.97 6.81
  A 0.79 0.78 15.8 0 0 101.64 6.44
  L 105.48 0.33"
/>
<path stroke="#848281" vector-effect="non-scaling-stroke" d="
  M 105.48 0.33
  Q 106.66 0.46 107.26 0.00"
/>
<path stroke="#848281" vector-effect="non-scaling-stroke" d="
  M 110.25 0.00
  L 106.02 8.08
  A 1.77 1.75 44.2 0 0 106.05 9.79
  Q 112.13 20.28 118.23 30.78
  Q 119.19 32.43 120.00 35.92"
/>
<path stroke="#848281" vector-effect="non-scaling-stroke" d="
  M 120.00 39.93
  L 119.61 45.32"
/>
<path stroke="#5e4820" vector-effect="non-scaling-stroke" d="
  M 119.61 45.32
  Q 118.68 40.20 117.63 38.37
  Q 104.95 16.22 102.87 12.79
  A 3.76 3.76 0.0 0 0 99.66 10.99
  L 56.03 10.99
  A 3.14 3.12 14.9 0 0 53.32 12.55
  L 30.78 51.58
  A 1.05 1.04 -45.7 0 0 30.79 52.63
  L 43.87 74.92"
/>
<path stroke="#444241" vector-effect="non-scaling-stroke" d="
  M 43.87 74.92
  Q 41.39 75.64 38.74 74.67"
/>
<path stroke="#fde8c3" vector-effect="non-scaling-stroke" d="
  M 84.09 0.00
  L 50.79 0.38"
/>
<path stroke="#fde8c3" vector-effect="non-scaling-stroke" d="
  M 84.63 0.00
  Q 85.46 0.37 86.16 0.00"
/>
<path stroke="#fde8c3" vector-effect="non-scaling-stroke" d="
  M 89.99 0.00
  Q 90.66 0.31 91.17 0.00"
/>
<path stroke="#fde8c3" vector-effect="non-scaling-stroke" d="
  M 92.20 0.00
  L 105.48 0.33"
/>
<path stroke="#dac69f" vector-effect="non-scaling-stroke" d="
  M 119.61 45.32
  L 120.00 48.08"
/>
<path stroke="#dac69f" vector-effect="non-scaling-stroke" d="
  M 120.00 60.25
  Q 119.84 60.45 119.80 60.78"
/>
<path stroke="#654c20" vector-effect="non-scaling-stroke" d="
  M 119.80 60.78
  Q 119.39 60.88 119.27 61.25
  Q 116.98 68.51 112.28 74.34"
/>
<path stroke="#9a865f" vector-effect="non-scaling-stroke" d="
  M 112.28 74.34
  Q 108.48 74.71 108.75 80.44"
/>
<path stroke="#654c20" vector-effect="non-scaling-stroke" d="
  M 108.75 80.44
  L 107.33 83.73
  A 0.05 0.01 -58.3 0 1 107.32 83.76
  L 102.60 92.47"
/>
<path stroke="#9a865f" vector-effect="non-scaling-stroke" d="
  M 102.60 92.47
  L 98.66 88.69
  A 0.66 0.65 -46.2 0 1 98.65 87.76
  C 101.62 84.69 102.51 82.08 101.15 77.77"
/>
<path stroke="#c8542f" vector-effect="non-scaling-stroke" d="
  M 101.15 77.77
  C 103.20 78.90 104.92 76.39 106.58 74.60
  A 0.69 0.68 44.7 0 0 106.57 73.66
  Q 99.20 65.93 92.30 55.99
  Q 91.20 54.40 90.17 52.59
  Q 89.07 50.65 88.09 49.16"
/>
<path stroke="#765b28" vector-effect="non-scaling-stroke" d="
  M 88.09 49.16
  L 84.88 39.84
  A 1.85 1.84 -79.0 0 0 84.34 39.03
  C 83.08 37.93 80.64 36.39 80.92 34.49
  A 0.92 0.87 -57.8 0 1 82.55 34.07
  Q 83.35 35.39 84.77 35.33
  C 85.93 35.29 87.37 33.07 88.74 32.97
  Q 92.90 32.66 97.28 30.45"
/>
<path stroke="#dac69f" vector-effect="non-scaling-stroke" d="
  M 97.28 30.45
  Q 98.40 30.61 98.62 28.09"
/>
<path stroke="#765b28" vector-effect="non-scaling-stroke" d="
  M 98.62 28.09
  Q 98.77 28.25 98.90 28.32
  A 0.36 0.35 11.3 0 0 99.42 27.98
  L 98.85 21.52
  A 0.49 0.48 -4.2 0 0 98.33 21.08
  Q 98.19 21.09 98.03 21.07"
/>
<path stroke="#dac69f" vector-effect="non-scaling-stroke" d="
  M 98.03 21.07
  Q 98.10 20.44 97.26 19.76"
/>
<path stroke="#765b28" vector-effect="non-scaling-stroke" d="
  M 97.26 19.76
  Q 95.94 17.77 94.09 17.72"
/>
<path stroke="#dac69f" vector-effect="non-scaling-stroke" d="
  M 94.09 17.72
  Q 93.24 16.13 91.81 16.58
  Q 91.79 16.59 89.47 17.30
  A 1.83 1.82 53.6 0 1 87.92 17.06
  Q 85.41 15.37 82.24 16.26
  C 80.08 16.87 78.91 16.61 76.55 16.33
  A 4.11 3.98 39.2 0 0 74.91 16.47
  Q 71.59 17.47 67.98 18.10
  C 66.54 18.35 65.70 19.18 65.38 20.64
  A 0.56 0.56 0.0 0 1 64.42 20.91
  C 62.69 19.02 61.33 20.73 60.63 22.51
  Q 59.82 24.59 58.27 26.03
  A 1.38 1.38 0.0 0 0 58.85 28.37
  Q 61.14 29.01 61.35 30.42
  A 2.26 2.24 -11.5 0 0 64.14 32.25
  Q 67.60 31.38 70.39 32.29"
/>
<path stroke="#765b28" vector-effect="non-scaling-stroke" d="
  M 70.39 32.29
  Q 71.10 32.84 74.10 32.24
  A 0.69 0.69 0.0 0 1 74.93 32.92
  Q 74.89 36.63 72.55 38.74
  A 3.95 3.92 -10.4 0 0 71.52 40.22
  Q 67.13 51.19 60.19 61.51
  C 57.33 65.75 52.89 70.13 49.41 74.69"
/>
<path stroke="#9a865f" vector-effect="non-scaling-stroke" d="
  M 49.41 74.69
  Q 46.69 76.03 43.87 74.92"
/>
<path stroke="#9b9488" vector-effect="non-scaling-stroke" d="
  M 94.09 17.72
  Q 94.22 19.93 97.26 19.76"
/>
<path stroke="#9b9488" vector-effect="non-scaling-stroke" d="
  M 98.03 21.07
  L 98.62 28.09"
/>
<path stroke="#9b9488" vector-effect="non-scaling-stroke" d="
  M 97.28 30.45
  Q 95.20 30.01 93.65 30.65
  A 1.61 1.59 9.7 0 0 93.05 31.07
  Q 90.97 33.37 87.88 31.55
  A 0.92 0.91 24.5 0 0 86.55 32.04
  L 86.23 32.98
  A 1.76 1.75 31.2 0 1 83.35 33.68
  Q 81.41 31.84 80.34 28.88
  A 0.37 0.37 0.0 0 0 79.63 28.99
  L 79.26 36.53
  A 1.28 1.23 -62.3 0 0 79.49 37.32
  L 80.84 39.18
  A 0.61 0.61 0.0 0 1 80.53 40.12
  Q 78.57 40.76 76.96 40.62
  A 1.76 1.75 8.8 0 1 75.39 38.48
  Q 76.30 34.52 75.40 30.71
  A 0.61 0.61 0.0 0 0 74.35 30.44
  Q 72.99 31.98 70.39 32.29"
/>
<path stroke="#8a2319" vector-effect="non-scaling-stroke" d="
  M 88.09 49.16
  L 83.84 40.60
  A 0.49 0.48 51.9 0 0 83.04 40.50
  Q 81.41 42.41 78.46 43.17
  A 2.89 2.88 80.8 0 0 76.31 46.16
  Q 76.61 50.63 76.70 52.90
  Q 76.78 55.18 75.66 59.52
  Q 73.71 67.14 71.17 74.64"
/>
<path stroke="#5b5448" vector-effect="non-scaling-stroke" d="
  M 71.17 74.64
  L 66.59 75.11
  A 17.98 17.59 32.2 0 0 62.77 75.93
  L 57.98 77.49"
/>
<path stroke="#765b28" vector-effect="non-scaling-stroke" d="
  M 57.98 77.49
  Q 57.50 75.90 54.41 75.74"
/>
<path stroke="#5b5448" vector-effect="non-scaling-stroke" d="
  M 54.41 75.74
  L 49.41 74.69"
/>
<path stroke="#ae4e50" vector-effect="non-scaling-stroke" d="
  M 101.15 77.77
  Q 99.07 75.29 97.25 75.18
  Q 91.04 74.80 85.04 74.99
  A 1.18 1.18 0.0 0 0 83.90 76.14
  L 83.76 83.73"
/>
<path stroke="#c8542f" vector-effect="non-scaling-stroke" d="
  M 83.76 83.73
  Q 81.64 84.21 80.02 83.34"
/>
<path stroke="#ae4e50" vector-effect="non-scaling-stroke" d="
  M 80.02 83.34
  Q 77.80 76.76 71.17 74.64"
/>
<path stroke="#901414" vector-effect="non-scaling-stroke" d="
  M 88.00 62.20
  L 89.79 61.50
  A 0.43 0.43 0.0 0 0 90.03 60.94
  L 89.74 60.19
  A 5.76 1.29 68.6 0 0 86.44 55.29
  L 86.25 55.37
  A 5.76 1.29 68.6 0 0 87.15 61.20
  L 87.45 61.96
  A 0.43 0.43 0.0 0 0 88.00 62.20"
/>
<path stroke="#901414" vector-effect="non-scaling-stroke" d="
  M 78.09 71.84
  L 79.81 71.93
  A 0.69 0.69 0.0 0 0 80.54 71.27
  L 80.55 71.05
  A 10.85 1.40 -87.1 0 0 79.70 60.15
  L 79.40 60.13
  A 10.85 1.40 -87.1 0 0 77.45 70.90
  L 77.44 71.11
  A 0.69 0.69 0.0 0 0 78.09 71.84"
/>
<path stroke="#8b8681" vector-effect="non-scaling-stroke" d="
  M 120.00 63.01
  Q 119.71 61.99 119.80 60.78"
/>
<path stroke="#8b8681" vector-effect="non-scaling-stroke" d="
  M 120.00 68.12
  C 119.25 71.82 117.54 74.40 116.03 77.86"
/>
<path stroke="#4b4641" vector-effect="non-scaling-stroke" d="
  M 116.03 77.86
  L 114.98 75.54
  A 0.89 0.89 0.0 0 0 114.18 75.01
  Q 112.66 74.99 112.28 74.34"
/>
<path stroke="#8b8681" vector-effect="non-scaling-stroke" d="
  M 109.37 104.00
  Q 109.64 103.79 110.28 103.67"
/>
<path stroke="#bfbfbf" vector-effect="non-scaling-stroke" d="
  M 110.28 103.67
  Q 110.73 103.71 110.81 103.67
  A 0.96 0.95 56.0 0 0 111.07 102.30
  L 106.98 96.64
  A 1.35 1.34 36.8 0 1 106.80 95.41
  L 108.20 91.31
  A 0.19 0.19 0.0 0 1 108.56 91.33
  Q 109.18 94.28 108.85 97.33
  A 0.62 0.62 0.0 0 0 109.47 98.01
  L 114.48 98.01
  A 0.53 0.53 0.0 0 0 115.01 97.48
  L 115.01 82.75
  A 6.98 6.78 52.7 0 1 115.21 81.10
  L 116.03 77.86"
/>
<path stroke="#9b9488" vector-effect="non-scaling-stroke" d="
  M 119.2960 75.1438
  A 1.72 0.28 -93.8 0 0 119.1306 76.8786
  A 1.72 0.28 -93.8 0 0 119.5240 78.5762
  A 1.72 0.28 -93.8 0 0 119.6894 76.8414
  A 1.72 0.28 -93.8 0 0 119.2960 75.1438"
/>
<path stroke="#9b9488" vector-effect="non-scaling-stroke" d="
  M 119.4640 93.7503
  A 2.06 0.29 -91.0 0 0 119.2100 95.8151
  A 2.06 0.29 -91.0 0 0 119.5360 97.8697
  A 2.06 0.29 -91.0 0 0 119.7900 95.8049
  A 2.06 0.29 -91.0 0 0 119.4640 93.7503"
/>
<path stroke="#4b4641" vector-effect="non-scaling-stroke" d="
  M 110.28 103.67
  Q 107.15 101.31 105.74 97.39
  Q 104.92 95.08 105.78 93.70
  Q 107.72 90.60 108.78 87.45
  A 4.75 4.56 53.9 0 0 109.02 85.69
  L 108.75 80.44"
/>
<path stroke="#9a865f" vector-effect="non-scaling-stroke" d="
  M 54.41 75.74
  Q 54.58 78.64 52.61 78.62
  Q 49.87 78.60 46.44 79.18"
/>
<path stroke="#4b4641" vector-effect="non-scaling-stroke" d="
  M 46.44 79.18
  Q 44.68 82.90 46.86 88.45"
/>
<path stroke="#9a865f" vector-effect="non-scaling-stroke" d="
  M 80.02 83.34
  C 79.81 86.62 80.20 91.07 78.40 93.85"
/>
<path stroke="#4b4641" vector-effect="non-scaling-stroke" d="
  M 78.40 93.85
  L 72.84 97.88"
/>
<path stroke="#9a865f" vector-effect="non-scaling-stroke" d="
  M 72.84 97.88
  Q 67.89 98.85 63.09 97.78"
/>
<path stroke="#4b4641" vector-effect="non-scaling-stroke" d="
  M 63.09 97.78
  L 57.64 93.96"
/>
<path stroke="#9a865f" vector-effect="non-scaling-stroke" d="
  M 57.64 93.96
  Q 55.31 88.84 56.68 83.70
  Q 57.81 79.47 57.98 77.49"
/>
<path stroke="#9a865f" vector-effect="non-scaling-stroke" d="
  M 63.39 82.39
  Q 61.81 83.81 61.83 86.38
  C 61.85 89.39 62.39 92.43 66.06 92.52
  Q 68.35 92.58 70.77 92.16
  C 73.85 91.62 73.96 88.98 73.97 86.34
  Q 73.99 83.92 72.71 81.96"
/>
<path stroke="#4b4641" vector-effect="non-scaling-stroke" d="
  M 72.71 81.96
  Q 67.20 76.11 63.39 82.39"
/>
<path stroke="#654c20" vector-effect="non-scaling-stroke" d="
  M 72.71 81.96
  Q 68.35 83.24 63.39 82.39"
/>
<path stroke="#4b4641" vector-effect="non-scaling-stroke" d="
  M 102.60 92.47
  Q 103.26 95.05 104.89 97.44
  A 0.28 0.27 -19.5 0 1 104.68 97.87
  Q 102.92 98.03 101.82 98.81"
/>
<path stroke="#9a865f" vector-effect="non-scaling-stroke" d="
  M 101.82 98.81
  Q 100.69 98.31 98.87 98.20
  Q 97.98 98.15 97.61 97.64"
/>
<path stroke="#4b4641" vector-effect="non-scaling-stroke" d="
  M 97.61 97.64
  Q 96.74 95.27 95.40 93.78"
/>
<path stroke="#9a865f" vector-effect="non-scaling-stroke" d="
  M 95.40 93.78
  Q 94.56 89.67 90.76 90.23
  A 0.73 0.71 -88.2 0 0 90.16 90.81
  Q 89.92 92.07 90.31 93.59"
/>
<path stroke="#4b4641" vector-effect="non-scaling-stroke" d="
  M 90.31 93.59
  Q 89.65 95.42 90.31 97.79"
/>
<path stroke="#9a865f" vector-effect="non-scaling-stroke" d="
  M 90.31 97.79
  Q 86.97 99.21 83.62 97.77"
/>
<path stroke="#4b4641" vector-effect="non-scaling-stroke" d="
  M 83.62 97.77
  Q 84.49 95.02 83.54 93.47"
/>
<path stroke="#9a865f" vector-effect="non-scaling-stroke" d="
  M 83.54 93.47
  L 83.76 83.73"
/>
<path stroke="#ae4e50" vector-effect="non-scaling-stroke" d="
  M 90.00 79.96
  L 89.96 84.90
  A 0.95 0.95 0.0 0 0 90.90 85.86
  L 92.49 85.88
  A 3.38 2.74 0.5 0 0 95.89 83.17
  L 95.91 81.81
  A 3.38 2.74 0.5 0 0 92.55 79.04
  L 90.96 79.02
  A 0.95 0.95 0.0 0 0 90.00 79.96"
/>
<path stroke="#654c20" vector-effect="non-scaling-stroke" d="
  M 57.64 93.96
  Q 55.07 93.84 54.25 92.75
  Q 51.19 88.69 46.44 79.18"
/>
<path stroke="#654c20" vector-effect="non-scaling-stroke" d="
  M 63.09 97.78
  L 56.43 97.86
  A 4.37 4.35 -73.6 0 0 52.82 99.84
  L 50.30 103.72"
/>
<path stroke="#896e45" vector-effect="non-scaling-stroke" d="
  M 50.30 103.72
  Q 50.27 103.86 50.25 104.00"
/>
<path stroke="#896e45" vector-effect="non-scaling-stroke" d="
  M 105.76 104.00
  Q 105.64 103.81 105.47 103.80"
/>
<path stroke="#654c20" vector-effect="non-scaling-stroke" d="
  M 105.47 103.80
  L 105.34 102.82
  A 0.59 0.58 -82.3 0 0 104.99 102.35
  Q 104.32 102.07 104.39 101.25
  A 1.28 1.28 0.0 0 0 104.10 100.31
  Q 103.36 99.39 101.82 98.81"
/>
<path stroke="#654c20" vector-effect="non-scaling-stroke" d="
  M 83.54 93.47
  L 78.40 93.85"
/>
<path stroke="#654c20" vector-effect="non-scaling-stroke" d="
  M 95.40 93.78
  L 90.31 93.59"
/>
<path stroke="#654c20" vector-effect="non-scaling-stroke" d="
  M 83.62 97.77
  L 72.84 97.88"
/>
<path stroke="#654c20" vector-effect="non-scaling-stroke" d="
  M 97.61 97.64
  L 90.31 97.79"
/>
<path stroke="#d8ae63" vector-effect="non-scaling-stroke" d="
  M 105.47 103.80
  Q 104.01 103.65 102.99 104.00"
/>
<path stroke="#d8ae63" vector-effect="non-scaling-stroke" d="
  M 52.13 104.00
  Q 51.28 103.68 50.30 103.72"
/>
</g>
<path fill="#ffffff" d="
  M 46.92 0.00
  L 45.96 0.29
  A 0.49 0.49 0.0 0 0 45.73 1.09
  Q 48.48 4.24 50.11 8.42
  A 1.66 1.65 -40.8 0 1 50.00 9.87
  Q 33.17 38.86 26.74 49.99
  Q 25.65 51.88 26.62 53.66
  Q 32.37 64.17 38.74 74.67
  Q 35.73 75.39 33.00 75.10
  A 0.87 0.86 -86.7 0 0 32.04 75.96
  L 32.04 78.09
  A 0.88 0.87 0.0 0 0 32.92 78.96
  L 39.10 78.96
  A 0.97 0.96 90.0 0 1 40.06 79.93
  L 40.06 96.93
  A 1.11 1.11 0.0 0 0 41.17 98.04
  L 44.90 98.04
  A 1.12 1.12 0.0 0 0 46.01 96.74
  Q 45.36 92.51 46.86 88.45
  L 49.83 94.38
  A 2.09 2.07 35.9 0 1 50.03 95.60
  Q 49.82 96.98 48.66 98.56
  A 2.83 2.83 0.0 0 0 48.19 99.64
  Q 47.77 101.87 46.20 102.92
  A 0.47 0.47 0.0 0 0 46.31 103.75
  L 47.02 104.00
  L 0.00 104.00
  L 0.00 97.87
  L 6.68 97.94
  A 0.30 0.30 0.0 0 0 6.98 97.64
  L 6.98 94.37
  A 0.28 0.28 0.0 0 0 6.70 94.09
  L 0.00 94.17
  L 0.00 87.81
  L 5.35 87.86
  A 0.64 0.64 0.0 0 0 6.00 87.22
  L 6.00 84.82
  A 0.69 0.68 89.2 0 0 5.30 84.13
  L 0.00 84.23
  L 0.00 78.85
  L 6.36 78.87
  A 0.65 0.65 0.0 0 0 7.01 78.22
  L 7.01 75.76
  A 0.63 0.63 0.0 0 0 6.37 75.13
  L 0.00 75.24
  L 0.00 0.00
  L 46.92 0.00
  Z
  M 11.08 86.53
  C 11.09 97.23 21.96 99.83 30.21 96.75
  A 1.21 1.21 0.0 0 0 31.00 95.62
  L 31.00 92.83
  A 0.52 0.52 0.0 0 0 30.22 92.39
  C 24.68 95.65 17.04 94.40 17.02 86.52
  C 17.01 78.64 24.65 77.36 30.20 80.61
  A 0.52 0.52 0.0 0 0 30.98 80.16
  L 30.97 77.37
  A 1.21 1.21 0.0 0 0 30.18 76.24
  C 21.92 73.20 11.06 75.83 11.08 86.53
  Z"
/>
<path fill="#080402" d="
  M 49.14 0.00
  Q 49.46 0.40 50.79 0.38
  L 54.59 6.45
  A 0.81 0.78 -15.7 0 0 55.26 6.81
  L 100.97 6.81
  A 0.79 0.78 15.8 0 0 101.64 6.44
  L 105.48 0.33
  Q 106.66 0.46 107.26 0.00
  L 110.25 0.00
  L 106.02 8.08
  A 1.77 1.75 44.2 0 0 106.05 9.79
  Q 112.13 20.28 118.23 30.78
  Q 119.19 32.43 120.00 35.92
  L 120.00 39.93
  L 119.61 45.32
  Q 118.68 40.20 117.63 38.37
  Q 104.95 16.22 102.87 12.79
  A 3.76 3.76 0.0 0 0 99.66 10.99
  L 56.03 10.99
  A 3.14 3.12 14.9 0 0 53.32 12.55
  L 30.78 51.58
  A 1.05 1.04 -45.7 0 0 30.79 52.63
  L 43.87 74.92
  Q 41.39 75.64 38.74 74.67
  Q 32.37 64.17 26.62 53.66
  Q 25.65 51.88 26.74 49.99
  Q 33.17 38.86 50.00 9.87
  A 1.66 1.65 -40.8 0 0 50.11 8.42
  Q 48.48 4.24 45.73 1.09
  A 0.49 0.49 0.0 0 1 45.96 0.29
  L 46.92 0.00
  L 49.14 0.00
  Z"
/>
<path fill="#ffffff" d="
  M 84.09 0.00
  L 50.79 0.38
  Q 49.46 0.40 49.14 0.00
  L 84.09 0.00
  Z"
/>
<path fill="#fbd087" d="
  M 84.63 0.00
  Q 85.46 0.37 86.16 0.00
  L 89.99 0.00
  Q 90.66 0.31 91.17 0.00
  L 92.20 0.00
  L 105.48 0.33
  L 101.64 6.44
  A 0.79 0.78 15.8 0 1 100.97 6.81
  L 55.26 6.81
  A 0.81 0.78 -15.7 0 1 54.59 6.45
  L 50.79 0.38
  L 84.09 0.00
  L 84.63 0.00
  Z"
/>
<path fill="#ffffff" d="
  M 86.16 0.00
  Q 85.46 0.37 84.63 0.00
  L 86.16 0.00
  Z"
/>
<path fill="#ffffff" d="
  M 91.17 0.00
  Q 90.66 0.31 89.99 0.00
  L 91.17 0.00
  Z"
/>
<path fill="#ffffff" d="
  M 107.26 0.00
  Q 106.66 0.46 105.48 0.33
  L 92.20 0.00
  L 107.26 0.00
  Z"
/>
<path fill="#ffffff" d="
  M 120.00 0.00
  L 120.00 35.92
  Q 119.19 32.43 118.23 30.78
  Q 112.13 20.28 106.05 9.79
  A 1.77 1.75 44.2 0 1 106.02 8.08
  L 110.25 0.00
  L 120.00 0.00
  Z"
/>
<path fill="#b48c3e" d="
  M 119.61 45.32
  L 120.00 48.08
  L 120.00 60.25
  Q 119.84 60.45 119.80 60.78
  Q 119.39 60.88 119.27 61.25
  Q 116.98 68.51 112.28 74.34
  Q 108.48 74.71 108.75 80.44
  L 107.33 83.73
  A 0.05 0.01 -58.3 0 1 107.32 83.76
  L 102.60 92.47
  L 98.66 88.69
  A 0.66 0.65 -46.2 0 1 98.65 87.76
  C 101.62 84.69 102.51 82.08 101.15 77.77
  C 103.20 78.90 104.92 76.39 106.58 74.60
  A 0.69 0.68 44.7 0 0 106.57 73.66
  Q 99.20 65.93 92.30 55.99
  Q 91.20 54.40 90.17 52.59
  Q 89.07 50.65 88.09 49.16
  L 84.88 39.84
  A 1.85 1.84 -79.0 0 0 84.34 39.03
  C 83.08 37.93 80.64 36.39 80.92 34.49
  A 0.92 0.87 -57.8 0 1 82.55 34.07
  Q 83.35 35.39 84.77 35.33
  C 85.93 35.29 87.37 33.07 88.74 32.97
  Q 92.90 32.66 97.28 30.45
  Q 98.40 30.61 98.62 28.09
  Q 98.77 28.25 98.90 28.32
  A 0.36 0.35 11.3 0 0 99.42 27.98
  L 98.85 21.52
  A 0.49 0.48 -4.2 0 0 98.33 21.08
  Q 98.19 21.09 98.03 21.07
  Q 98.10 20.44 97.26 19.76
  Q 95.94 17.77 94.09 17.72
  Q 93.24 16.13 91.81 16.58
  Q 91.79 16.59 89.47 17.30
  A 1.83 1.82 53.6 0 1 87.92 17.06
  Q 85.41 15.37 82.24 16.26
  C 80.08 16.87 78.91 16.61 76.55 16.33
  A 4.11 3.98 39.2 0 0 74.91 16.47
  Q 71.59 17.47 67.98 18.10
  C 66.54 18.35 65.70 19.18 65.38 20.64
  A 0.56 0.56 0.0 0 1 64.42 20.91
  C 62.69 19.02 61.33 20.73 60.63 22.51
  Q 59.82 24.59 58.27 26.03
  A 1.38 1.38 0.0 0 0 58.85 28.37
  Q 61.14 29.01 61.35 30.42
  A 2.26 2.24 -11.5 0 0 64.14 32.25
  Q 67.60 31.38 70.39 32.29
  Q 71.10 32.84 74.10 32.24
  A 0.69 0.69 0.0 0 1 74.93 32.92
  Q 74.89 36.63 72.55 38.74
  A 3.95 3.92 -10.4 0 0 71.52 40.22
  Q 67.13 51.19 60.19 61.51
  C 57.33 65.75 52.89 70.13 49.41 74.69
  Q 46.69 76.03 43.87 74.92
  L 30.79 52.63
  A 1.05 1.04 -45.7 0 1 30.78 51.58
  L 53.32 12.55
  A 3.14 3.12 14.9 0 1 56.03 10.99
  L 99.66 10.99
  A 3.76 3.76 0.0 0 1 102.87 12.79
  Q 104.95 16.22 117.63 38.37
  Q 118.68 40.20 119.61 45.32
  Z"
/>
<path fill="#ffffff" d="
  M 94.09 17.72
  Q 94.22 19.93 97.26 19.76
  Q 98.10 20.44 98.03 21.07
  L 98.62 28.09
  Q 98.40 30.61 97.28 30.45
  Q 95.20 30.01 93.65 30.65
  A 1.61 1.59 9.7 0 0 93.05 31.07
  Q 90.97 33.37 87.88 31.55
  A 0.92 0.91 24.5 0 0 86.55 32.04
  L 86.23 32.98
  A 1.76 1.75 31.2 0 1 83.35 33.68
  Q 81.41 31.84 80.34 28.88
  A 0.37 0.37 0.0 0 0 79.63 28.99
  L 79.26 36.53
  A 1.28 1.23 -62.3 0 0 79.49 37.32
  L 80.84 39.18
  A 0.61 0.61 0.0 0 1 80.53 40.12
  Q 78.57 40.76 76.96 40.62
  A 1.76 1.75 8.8 0 1 75.39 38.48
  Q 76.30 34.52 75.40 30.71
  A 0.61 0.61 0.0 0 0 74.35 30.44
  Q 72.99 31.98 70.39 32.29
  Q 67.60 31.38 64.14 32.25
  A 2.26 2.24 -11.5 0 1 61.35 30.42
  Q 61.14 29.01 58.85 28.37
  A 1.38 1.38 0.0 0 1 58.27 26.03
  Q 59.82 24.59 60.63 22.51
  C 61.33 20.73 62.69 19.02 64.42 20.91
  A 0.56 0.56 0.0 0 0 65.38 20.64
  C 65.70 19.18 66.54 18.35 67.98 18.10
  Q 71.59 17.47 74.91 16.47
  A 4.11 3.98 39.2 0 1 76.55 16.33
  C 78.91 16.61 80.08 16.87 82.24 16.26
  Q 85.41 15.37 87.92 17.06
  A 1.83 1.82 53.6 0 0 89.47 17.30
  Q 91.79 16.59 91.81 16.58
  Q 93.24 16.13 94.09 17.72
  Z"
/>
<path fill="#372911" d="
  M 97.26 19.76
  Q 94.22 19.93 94.09 17.72
  Q 95.94 17.77 97.26 19.76
  Z"
/>
<path fill="#372911" d="
  M 98.62 28.09
  L 98.03 21.07
  Q 98.19 21.09 98.33 21.08
  A 0.49 0.48 -4.2 0 1 98.85 21.52
  L 99.42 27.98
  A 0.36 0.35 11.3 0 1 98.90 28.32
  Q 98.77 28.25 98.62 28.09
  Z"
/>
<path fill="#372911" d="
  M 97.28 30.45
  Q 92.90 32.66 88.74 32.97
  C 87.37 33.07 85.93 35.29 84.77 35.33
  Q 83.35 35.39 82.55 34.07
  A 0.92 0.87 -57.8 0 0 80.92 34.49
  C 80.64 36.39 83.08 37.93 84.34 39.03
  A 1.85 1.84 -79.0 0 1 84.88 39.84
  L 88.09 49.16
  L 83.84 40.60
  A 0.49 0.48 51.9 0 0 83.04 40.50
  Q 81.41 42.41 78.46 43.17
  A 2.89 2.88 80.8 0 0 76.31 46.16
  Q 76.61 50.63 76.70 52.90
  Q 76.78 55.18 75.66 59.52
  Q 73.71 67.14 71.17 74.64
  L 66.59 75.11
  A 17.98 17.59 32.2 0 0 62.77 75.93
  L 57.98 77.49
  Q 57.50 75.90 54.41 75.74
  L 49.41 74.69
  C 52.89 70.13 57.33 65.75 60.19 61.51
  Q 67.13 51.19 71.52 40.22
  A 3.95 3.92 -10.4 0 1 72.55 38.74
  Q 74.89 36.63 74.93 32.92
  A 0.69 0.69 0.0 0 0 74.10 32.24
  Q 71.10 32.84 70.39 32.29
  Q 72.99 31.98 74.35 30.44
  A 0.61 0.61 0.0 0 1 75.40 30.71
  Q 76.30 34.52 75.39 38.48
  A 1.76 1.75 8.8 0 0 76.96 40.62
  Q 78.57 40.76 80.53 40.12
  A 0.61 0.61 0.0 0 0 80.84 39.18
  L 79.49 37.32
  A 1.28 1.23 -62.3 0 1 79.26 36.53
  L 79.63 28.99
  A 0.37 0.37 0.0 0 1 80.34 28.88
  Q 81.41 31.84 83.35 33.68
  A 1.76 1.75 31.2 0 0 86.23 32.98
  L 86.55 32.04
  A 0.92 0.91 24.5 0 1 87.88 31.55
  Q 90.97 33.37 93.05 31.07
  A 1.61 1.59 9.7 0 1 93.65 30.65
  Q 95.20 30.01 97.28 30.45
  Z"
/>
<path fill="#ffffff" d="
  M 120.00 39.93
  L 120.00 48.08
  L 119.61 45.32
  L 120.00 39.93
  Z"
/>
<path fill="#dc1c20" d="
  M 88.09 49.16
  Q 89.07 50.65 90.17 52.59
  Q 91.20 54.40 92.30 55.99
  Q 99.20 65.93 106.57 73.66
  A 0.69 0.68 44.7 0 1 106.58 74.60
  C 104.92 76.39 103.20 78.90 101.15 77.77
  Q 99.07 75.29 97.25 75.18
  Q 91.04 74.80 85.04 74.99
  A 1.18 1.18 0.0 0 0 83.90 76.14
  L 83.76 83.73
  Q 81.64 84.21 80.02 83.34
  Q 77.80 76.76 71.17 74.64
  Q 73.71 67.14 75.66 59.52
  Q 76.78 55.18 76.70 52.90
  Q 76.61 50.63 76.31 46.16
  A 2.89 2.88 80.8 0 1 78.46 43.17
  Q 81.41 42.41 83.04 40.50
  A 0.49 0.48 51.9 0 1 83.84 40.60
  L 88.09 49.16
  Z
  M 88.00 62.20
  L 89.79 61.50
  A 0.43 0.43 0.0 0 0 90.03 60.94
  L 89.74 60.19
  A 5.76 1.29 68.6 0 0 86.44 55.29
  L 86.25 55.37
  A 5.76 1.29 68.6 0 0 87.15 61.20
  L 87.45 61.96
  A 0.43 0.43 0.0 0 0 88.00 62.20
  Z
  M 78.09 71.84
  L 79.81 71.93
  A 0.69 0.69 0.0 0 0 80.54 71.27
  L 80.55 71.05
  A 10.85 1.40 -87.1 0 0 79.70 60.15
  L 79.40 60.13
  A 10.85 1.40 -87.1 0 0 77.45 70.90
  L 77.44 71.11
  A 0.69 0.69 0.0 0 0 78.09 71.84
  Z"
/>
<path fill="#430b08" d="
  M 88.00 62.20
  A 0.43 0.43 0.0 0 1 87.45 61.96
  L 87.15 61.20
  A 5.76 1.29 68.6 0 1 86.25 55.37
  L 86.44 55.29
  A 5.76 1.29 68.6 0 1 89.74 60.19
  L 90.03 60.94
  A 0.43 0.43 0.0 0 1 89.79 61.50
  L 88.00 62.20
  Z"
/>
<path fill="#430b08" d="
  M 78.09 71.84
  A 0.69 0.69 0.0 0 1 77.44 71.11
  L 77.45 70.90
  A 10.85 1.40 -87.1 0 1 79.40 60.13
  L 79.70 60.15
  A 10.85 1.40 -87.1 0 1 80.55 71.05
  L 80.54 71.27
  A 0.69 0.69 0.0 0 1 79.81 71.93
  L 78.09 71.84
  Z"
/>
<path fill="#ffffff" d="
  M 120.00 60.25
  L 120.00 63.01
  Q 119.71 61.99 119.80 60.78
  Q 119.84 60.45 120.00 60.25
  Z"
/>
<path fill="#160c02" d="
  M 119.80 60.78
  Q 119.71 61.99 120.00 63.01
  L 120.00 68.12
  C 119.25 71.82 117.54 74.40 116.03 77.86
  L 114.98 75.54
  A 0.89 0.89 0.0 0 0 114.18 75.01
  Q 112.66 74.99 112.28 74.34
  Q 116.98 68.51 119.27 61.25
  Q 119.39 60.88 119.80 60.78
  Z"
/>
<path fill="#ffffff" d="
  M 120.00 68.12
  L 120.00 104.00
  L 109.37 104.00
  Q 109.64 103.79 110.28 103.67
  Q 110.73 103.71 110.81 103.67
  A 0.96 0.95 56.0 0 0 111.07 102.30
  L 106.98 96.64
  A 1.35 1.34 36.8 0 1 106.80 95.41
  L 108.20 91.31
  A 0.19 0.19 0.0 0 1 108.56 91.33
  Q 109.18 94.28 108.85 97.33
  A 0.62 0.62 0.0 0 0 109.47 98.01
  L 114.48 98.01
  A 0.53 0.53 0.0 0 0 115.01 97.48
  L 115.01 82.75
  A 6.98 6.78 52.7 0 1 115.21 81.10
  L 116.03 77.86
  C 117.54 74.40 119.25 71.82 120.00 68.12
  Z
  M 119.2960 75.1438
  A 1.72 0.28 -93.8 0 0 119.1306 76.8786
  A 1.72 0.28 -93.8 0 0 119.5240 78.5762
  A 1.72 0.28 -93.8 0 0 119.6894 76.8414
  A 1.72 0.28 -93.8 0 0 119.2960 75.1438
  Z
  M 119.4640 93.7503
  A 2.06 0.29 -91.0 0 0 119.2100 95.8151
  A 2.06 0.29 -91.0 0 0 119.5360 97.8697
  A 2.06 0.29 -91.0 0 0 119.7900 95.8049
  A 2.06 0.29 -91.0 0 0 119.4640 93.7503
  Z"
/>
<path fill="#7f7f7f" d="
  M 112.28 74.34
  Q 112.66 74.99 114.18 75.01
  A 0.89 0.89 0.0 0 1 114.98 75.54
  L 116.03 77.86
  L 115.21 81.10
  A 6.98 6.78 52.7 0 0 115.01 82.75
  L 115.01 97.48
  A 0.53 0.53 0.0 0 1 114.48 98.01
  L 109.47 98.01
  A 0.62 0.62 0.0 0 1 108.85 97.33
  Q 109.18 94.28 108.56 91.33
  A 0.19 0.19 0.0 0 0 108.20 91.31
  L 106.80 95.41
  A 1.35 1.34 36.8 0 0 106.98 96.64
  L 111.07 102.30
  A 0.96 0.95 56.0 0 1 110.81 103.67
  Q 110.73 103.71 110.28 103.67
  Q 107.15 101.31 105.74 97.39
  Q 104.92 95.08 105.78 93.70
  Q 107.72 90.60 108.78 87.45
  A 4.75 4.56 53.9 0 0 109.02 85.69
  L 108.75 80.44
  Q 108.48 74.71 112.28 74.34
  Z"
/>
<path fill="#7f7f7f" d="
  M 43.87 74.92
  Q 46.69 76.03 49.41 74.69
  L 54.41 75.74
  Q 54.58 78.64 52.61 78.62
  Q 49.87 78.60 46.44 79.18
  Q 44.68 82.90 46.86 88.45
  Q 45.36 92.51 46.01 96.74
  A 1.12 1.12 0.0 0 1 44.90 98.04
  L 41.17 98.04
  A 1.11 1.11 0.0 0 1 40.06 96.93
  L 40.06 79.93
  A 0.97 0.96 90.0 0 0 39.10 78.96
  L 32.92 78.96
  A 0.88 0.87 0.0 0 1 32.04 78.09
  L 32.04 75.96
  A 0.87 0.86 -86.7 0 1 33.00 75.10
  Q 35.73 75.39 38.74 74.67
  Q 41.39 75.64 43.87 74.92
  Z"
/>
<path fill="#7f7f7f" d="
  M 71.17 74.64
  Q 77.80 76.76 80.02 83.34
  C 79.81 86.62 80.20 91.07 78.40 93.85
  L 72.84 97.88
  Q 67.89 98.85 63.09 97.78
  L 57.64 93.96
  Q 55.31 88.84 56.68 83.70
  Q 57.81 79.47 57.98 77.49
  L 62.77 75.93
  A 17.98 17.59 32.2 0 1 66.59 75.11
  L 71.17 74.64
  Z
  M 63.39 82.39
  Q 61.81 83.81 61.83 86.38
  C 61.85 89.39 62.39 92.43 66.06 92.52
  Q 68.35 92.58 70.77 92.16
  C 73.85 91.62 73.96 88.98 73.97 86.34
  Q 73.99 83.92 72.71 81.96
  Q 67.20 76.11 63.39 82.39
  Z"
/>
<path fill="#7f7f7f" d="
  M 0.00 78.85
  L 0.00 75.24
  L 6.37 75.13
  A 0.63 0.63 0.0 0 1 7.01 75.76
  L 7.01 78.22
  A 0.65 0.65 0.0 0 1 6.36 78.87
  L 0.00 78.85
  Z"
/>
<path fill="#7f7f7f" d="
  M 17.02 86.52
  C 17.04 94.40 24.68 95.65 30.22 92.39
  A 0.52 0.52 0.0 0 1 31.00 92.83
  L 31.00 95.62
  A 1.21 1.21 0.0 0 1 30.21 96.75
  C 21.96 99.83 11.09 97.23 11.08 86.53
  C 11.06 75.83 21.92 73.20 30.18 76.24
  A 1.21 1.21 0.0 0 1 30.97 77.37
  L 30.98 80.16
  A 0.52 0.52 0.0 0 1 30.20 80.61
  C 24.65 77.36 17.01 78.64 17.02 86.52
  Z"
/>
<path fill="#7f7f7f" d="
  M 101.15 77.77
  C 102.51 82.08 101.62 84.69 98.65 87.76
  A 0.66 0.65 -46.2 0 0 98.66 88.69
  L 102.60 92.47
  Q 103.26 95.05 104.89 97.44
  A 0.28 0.27 -19.5 0 1 104.68 97.87
  Q 102.92 98.03 101.82 98.81
  Q 100.69 98.31 98.87 98.20
  Q 97.98 98.15 97.61 97.64
  Q 96.74 95.27 95.40 93.78
  Q 94.56 89.67 90.76 90.23
  A 0.73 0.71 -88.2 0 0 90.16 90.81
  Q 89.92 92.07 90.31 93.59
  Q 89.65 95.42 90.31 97.79
  Q 86.97 99.21 83.62 97.77
  Q 84.49 95.02 83.54 93.47
  L 83.76 83.73
  L 83.90 76.14
  A 1.18 1.18 0.0 0 1 85.04 74.99
  Q 91.04 74.80 97.25 75.18
  Q 99.07 75.29 101.15 77.77
  Z
  M 90.00 79.96
  L 89.96 84.90
  A 0.95 0.95 0.0 0 0 90.90 85.86
  L 92.49 85.88
  A 3.38 2.74 0.5 0 0 95.89 83.17
  L 95.91 81.81
  A 3.38 2.74 0.5 0 0 92.55 79.04
  L 90.96 79.02
  A 0.95 0.95 0.0 0 0 90.00 79.96
  Z"
/>
<ellipse fill="#372911" cx="0.00" cy="0.00" transform="translate(119.41,76.86) rotate(-93.8)" rx="1.72" ry="0.28"/>
<path fill="#b48c3e" d="
  M 57.98 77.49
  Q 57.81 79.47 56.68 83.70
  Q 55.31 88.84 57.64 93.96
  Q 55.07 93.84 54.25 92.75
  Q 51.19 88.69 46.44 79.18
  Q 49.87 78.60 52.61 78.62
  Q 54.58 78.64 54.41 75.74
  Q 57.50 75.90 57.98 77.49
  Z"
/>
<path fill="#dc1c20" d="
  M 90.00 79.96
  A 0.95 0.95 0.0 0 1 90.96 79.02
  L 92.55 79.04
  A 3.38 2.74 0.5 0 1 95.91 81.81
  L 95.89 83.17
  A 3.38 2.74 0.5 0 1 92.49 85.88
  L 90.90 85.86
  A 0.95 0.95 0.0 0 1 89.96 84.90
  L 90.00 79.96
  Z"
/>
<path fill="#160c02" d="
  M 46.44 79.18
  Q 51.19 88.69 54.25 92.75
  Q 55.07 93.84 57.64 93.96
  L 63.09 97.78
  L 56.43 97.86
  A 4.37 4.35 -73.6 0 0 52.82 99.84
  L 50.30 103.72
  Q 50.27 103.86 50.25 104.00
  L 47.02 104.00
  L 46.31 103.75
  A 0.47 0.47 0.0 0 1 46.20 102.92
  Q 47.77 101.87 48.19 99.64
  A 2.83 2.83 0.0 0 1 48.66 98.56
  Q 49.82 96.98 50.03 95.60
  A 2.09 2.07 35.9 0 0 49.83 94.38
  L 46.86 88.45
  Q 44.68 82.90 46.44 79.18
  Z"
/>
<path fill="#160c02" d="
  M 72.71 81.96
  Q 68.35 83.24 63.39 82.39
  Q 67.20 76.11 72.71 81.96
  Z"
/>
<path fill="#160c02" d="
  M 110.28 103.67
  Q 109.64 103.79 109.37 104.00
  L 105.76 104.00
  Q 105.64 103.81 105.47 103.80
  L 105.34 102.82
  A 0.59 0.58 -82.3 0 0 104.99 102.35
  Q 104.32 102.07 104.39 101.25
  A 1.28 1.28 0.0 0 0 104.10 100.31
  Q 103.36 99.39 101.82 98.81
  Q 102.92 98.03 104.68 97.87
  A 0.28 0.27 -19.5 0 0 104.89 97.44
  Q 103.26 95.05 102.60 92.47
  L 107.32 83.76
  A 0.05 0.01 -58.3 0 0 107.33 83.73
  L 108.75 80.44
  L 109.02 85.69
  A 4.75 4.56 53.9 0 1 108.78 87.45
  Q 107.72 90.60 105.78 93.70
  Q 104.92 95.08 105.74 97.39
  Q 107.15 101.31 110.28 103.67
  Z"
/>
<path fill="#b48c3e" d="
  M 63.39 82.39
  Q 68.35 83.24 72.71 81.96
  Q 73.99 83.92 73.97 86.34
  C 73.96 88.98 73.85 91.62 70.77 92.16
  Q 68.35 92.58 66.06 92.52
  C 62.39 92.43 61.85 89.39 61.83 86.38
  Q 61.81 83.81 63.39 82.39
  Z"
/>
<path fill="#b48c3e" d="
  M 83.76 83.73
  L 83.54 93.47
  L 78.40 93.85
  C 80.20 91.07 79.81 86.62 80.02 83.34
  Q 81.64 84.21 83.76 83.73
  Z"
/>
<path fill="#7f7f7f" d="
  M 0.00 87.81
  L 0.00 84.23
  L 5.30 84.13
  A 0.69 0.68 89.2 0 1 6.00 84.82
  L 6.00 87.22
  A 0.64 0.64 0.0 0 1 5.35 87.86
  L 0.00 87.81
  Z"
/>
<path fill="#b48c3e" d="
  M 95.40 93.78
  L 90.31 93.59
  Q 89.92 92.07 90.16 90.81
  A 0.73 0.71 -88.2 0 1 90.76 90.23
  Q 94.56 89.67 95.40 93.78
  Z"
/>
<path fill="#160c02" d="
  M 83.54 93.47
  Q 84.49 95.02 83.62 97.77
  L 72.84 97.88
  L 78.40 93.85
  L 83.54 93.47
  Z"
/>
<path fill="#160c02" d="
  M 95.40 93.78
  Q 96.74 95.27 97.61 97.64
  L 90.31 97.79
  Q 89.65 95.42 90.31 93.59
  L 95.40 93.78
  Z"
/>
<ellipse fill="#372911" cx="0.00" cy="0.00" transform="translate(119.50,95.81) rotate(-91.0)" rx="2.06" ry="0.29"/>
<path fill="#7f7f7f" d="
  M 0.00 97.87
  L 0.00 94.17
  L 6.70 94.09
  A 0.28 0.28 0.0 0 1 6.98 94.37
  L 6.98 97.64
  A 0.30 0.30 0.0 0 1 6.68 97.94
  L 0.00 97.87
  Z"
/>
<path fill="#b48c3e" d="
  M 83.62 97.77
  Q 86.97 99.21 90.31 97.79
  L 97.61 97.64
  Q 97.98 98.15 98.87 98.20
  Q 100.69 98.31 101.82 98.81
  Q 103.36 99.39 104.10 100.31
  A 1.28 1.28 0.0 0 1 104.39 101.25
  Q 104.32 102.07 104.99 102.35
  A 0.59 0.58 -82.3 0 1 105.34 102.82
  L 105.47 103.80
  Q 104.01 103.65 102.99 104.00
  L 52.13 104.00
  Q 51.28 103.68 50.30 103.72
  L 52.82 99.84
  A 4.37 4.35 -73.6 0 1 56.43 97.86
  L 63.09 97.78
  Q 67.89 98.85 72.84 97.88
  L 83.62 97.77
  Z"
/>
<path fill="#fbd087" d="
  M 52.13 104.00
  L 50.25 104.00
  Q 50.27 103.86 50.30 103.72
  Q 51.28 103.68 52.13 104.00
  Z"
/>
<path fill="#fbd087" d="
  M 105.47 103.80
  Q 105.64 103.81 105.76 104.00
  L 102.99 104.00
  Q 104.01 103.65 105.47 103.80
  Z"
/>
</svg>
