<?xml version="1.0" encoding="UTF-8" standalone="no"?>
<!DOCTYPE svg PUBLIC "-//W3C//DTD SVG 1.1//EN" "http://www.w3.org/Graphics/SVG/1.1/DTD/svg11.dtd">
<svg xmlns="http://www.w3.org/2000/svg" version="1.1" viewBox="0.00 0.00 120.00 104.00">
<g stroke-width="2.00" fill="none" stroke-linecap="butt">
<path stroke="#4c4842" vector-effect="non-scaling-stroke" d="
  M 43.89 20.94
  L 39.37 29.02"
/>
<path stroke="#534a42" vector-effect="non-scaling-stroke" d="
  M 31.50 42.57
  Q 29.87 45.83 26.68 50.90
  Q 25.96 52.04 26.26 53.26"
/>
<path stroke="#5d5347" vector-effect="non-scaling-stroke" d="
  M 33.43 65.79
  L 33.83 67.42"
/>
<path stroke="#9a865f" vector-effect="non-scaling-stroke" d="
  M 44.28 74.81
  L 46.64 74.58"
/>
<path stroke="#5d5347" vector-effect="non-scaling-stroke" d="
  M 46.64 74.58
  Q 50.25 74.99 53.14 75.12
  Q 54.41 75.18 54.57 77.16"
/>
<path stroke="#9a865f" vector-effect="non-scaling-stroke" d="
  M 54.57 77.16
  Q 54.76 78.09 54.61 78.68
  A 0.79 0.79 0.0 0 1 53.90 79.27
  L 46.47 79.72"
/>
<path stroke="#4c4842" vector-effect="non-scaling-stroke" d="
  M 46.47 79.72
  Q 44.90 84.46 47.49 89.99"
/>
<path stroke="#9c9c98" vector-effect="non-scaling-stroke" d="
  M 47.49 89.99
  Q 46.55 89.60 46.41 89.89
  Q 45.97 90.86 46.12 91.86"
/>
<path stroke="#6e5121" vector-effect="non-scaling-stroke" d="
  M 104.07 3.39
  Q 103.03 4.01 102.71 5.49
  A 1.36 1.34 -13.8 0 1 102.24 6.25
  Q 100.97 7.30 99.25 7.29
  Q 79.71 7.13 61.25 7.18
  Q 58.41 7.19 55.50 6.98"
/>
<path stroke="#70675b" vector-effect="non-scaling-stroke" d="
  M 105.60 8.74
  Q 106.67 7.64 107.07 6.76"
/>
<path stroke="#6e5121" vector-effect="non-scaling-stroke" d="
  M 102.18 11.98
  L 55.31 11.98"
/>
<path stroke="#9a865f" vector-effect="non-scaling-stroke" d="
  M 112.25 74.29
  Q 108.03 74.53 108.57 81.08"
/>
<path stroke="#664e21" vector-effect="non-scaling-stroke" d="
  M 108.57 81.08
  L 102.72 92.63"
/>
<path stroke="#9a865f" vector-effect="non-scaling-stroke" d="
  M 102.72 92.63
  L 98.88 89.13
  A 1.17 1.17 0.0 0 1 98.92 87.37
  C 101.94 84.86 103.30 78.55 98.95 76.57
  Q 95.31 74.90 91.88 74.57"
/>
<path stroke="#c45530" vector-effect="non-scaling-stroke" d="
  M 91.88 74.57
  L 84.76 66.77
  A 2.25 2.23 85.0 0 0 84.31 66.39
  Q 82.78 65.40 81.73 64.21
  A 0.64 0.64 0.0 0 1 82.21 63.14
  L 94.22 63.00
  A 2.65 1.52 33.6 0 1 94.53 63.02
  Q 98.77 63.75 100.56 62.79
  Q 104.63 60.59 108.41 57.68
  A 0.61 0.60 48.5 0 0 108.46 56.77
  L 96.69 45.32
  A 3.30 3.30 0.0 0 1 96.06 44.50
  Q 94.75 42.13 91.78 36.34
  Q 91.22 35.25 89.07 34.38
  A 0.51 0.50 -76.1 0 0 88.38 34.80
  Q 88.31 35.44 88.11 35.68
  A 1.37 1.36 -71.8 0 1 87.21 36.14
  L 83.98 36.44
  A 1.10 1.09 61.3 0 1 83.24 36.22
  Q 82.31 35.49 82.16 35.08
  A 0.86 0.83 -43.4 0 0 80.61 35.06
  Q 79.93 36.51 81.62 38.18"
/>
<path stroke="#dac69e" vector-effect="non-scaling-stroke" d="
  M 81.62 38.18
  Q 78.19 38.66 75.05 37.80
  A 2.98 2.96 -49.2 0 0 73.06 37.95
  L 72.04 38.40
  A 2.39 2.37 -42.9 0 1 69.98 38.33
  C 66.32 36.28 65.67 40.16 62.28 39.22
  A 1.33 1.32 35.9 0 0 61.20 39.39
  C 59.42 40.53 59.64 41.21 57.22 40.85
  A 1.05 1.04 -70.6 0 0 56.15 41.37
  L 54.20 44.74
  A 0.45 0.45 0.0 0 0 54.30 45.31
  L 56.93 47.45
  A 1.99 1.99 0.0 0 0 58.19 47.90
  L 64.71 47.92"
/>
<path stroke="#b7a278" vector-effect="non-scaling-stroke" d="
  M 64.71 47.92
  L 66.84 48.01
  A 1.44 1.43 -78.4 0 1 68.12 49.96
  L 67.27 52.22"
/>
<path stroke="#785a26" vector-effect="non-scaling-stroke" d="
  M 67.27 52.22
  Q 67.46 51.43 67.26 50.85
  A 0.46 0.45 62.0 0 0 66.56 50.63
  Q 64.32 52.27 63.45 54.76
  A 3.39 3.21 -21.7 0 1 63.20 55.30
  Q 56.80 66.22 46.64 74.58"
/>
<path stroke="#785a26" vector-effect="non-scaling-stroke" d="
  M 38.88 67.24
  Q 38.04 63.84 35.84 61.71"
/>
<path stroke="#6e5121" vector-effect="non-scaling-stroke" d="
  M 30.88 53.20
  L 36.72 42.72"
/>
<path stroke="#664e21" vector-effect="non-scaling-stroke" d="
  M 41.68 33.93
  L 49.36 20.75"
/>
<path stroke="#dac69e" vector-effect="non-scaling-stroke" d="
  M 83.58 19.59
  A 0.57 0.57 0.0 0 0 82.64 19.83
  C 81.66 23.12 77.67 21.37 75.18 22.30
  Q 70.76 23.97 70.55 28.70
  A 0.71 0.70 2.8 0 0 71.23 29.44
  L 82.87 29.97
  A 0.67 0.55 -50.9 0 0 83.11 29.92
  Q 85.89 28.69 88.98 29.99
  A 0.21 0.18 49.7 0 0 89.10 30.01
  L 99.16 28.90
  A 1.89 1.89 0.0 0 0 100.73 26.38
  L 99.24 22.23
  A 1.24 1.23 -18.6 0 0 97.70 21.47
  Q 93.73 22.75 92.15 20.27
  A 1.65 1.64 58.6 0 0 89.95 19.73
  L 87.24 21.30
  A 1.89 1.88 52.4 0 1 84.98 21.00
  L 83.58 19.59"
/>
<path stroke="#aa4f50" vector-effect="non-scaling-stroke" d="
  M 91.88 74.57
  L 85.30 75.03
  A 1.18 1.17 0.6 0 0 84.21 76.09
  L 83.86 80.02"
/>
<path stroke="#c45530" vector-effect="non-scaling-stroke" d="
  M 83.86 80.02
  Q 80.19 80.95 78.34 79.73"
/>
<path stroke="#aa4f50" vector-effect="non-scaling-stroke" d="
  M 78.34 79.73
  C 74.03 74.60 70.25 74.41 63.53 75.01"
/>
<path stroke="#882318" vector-effect="non-scaling-stroke" d="
  M 63.53 75.01
  Q 67.21 68.44 68.43 61.61
  C 68.72 59.99 68.29 58.11 68.46 56.42
  A 1.21 1.21 0.0 0 1 69.07 55.48
  Q 70.14 54.87 70.80 54.01"
/>
<path stroke="#c76b69" vector-effect="non-scaling-stroke" d="
  M 70.80 54.01
  Q 72.53 53.76 72.36 52.84"
/>
<path stroke="#8d1e1b" vector-effect="non-scaling-stroke" d="
  M 72.36 52.84
  Q 75.69 55.41 77.76 60.70
  A 2.14 2.12 -29.6 0 1 77.07 63.16
  Q 76.19 63.84 75.75 65.12
  A 1.47 1.38 4.9 0 0 77.38 66.93
  C 79.17 66.68 79.63 65.20 80.49 63.29
  A 2.24 2.23 83.1 0 1 81.12 62.48
  Q 81.84 61.89 82.38 61.90
  A 0.39 0.38 78.8 0 0 82.74 61.35
  L 81.95 59.55
  A 2.60 2.58 30.7 0 1 81.75 58.78
  Q 81.41 55.43 83.16 50.24
  Q 83.63 48.84 82.56 47.22"
/>
<path stroke="#ea8f90" vector-effect="non-scaling-stroke" d="
  M 82.56 47.22
  Q 83.53 46.24 84.50 47.12
  A 0.96 0.92 -76.6 0 0 86.01 46.15
  Q 85.36 43.44 85.42 40.94
  A 0.79 0.78 -80.5 0 0 84.88 40.18
  Q 82.94 39.57 81.62 38.18"
/>
<path stroke="#a61117" vector-effect="non-scaling-stroke" d="
  M 84.01 57.49
  L 87.18 58.22
  A 0.19 0.19 0.0 0 0 87.41 58.08
  L 87.65 57.05
  A 6.36 1.77 -77.0 0 0 87.35 50.46
  L 87.26 50.44
  A 6.36 1.77 -77.0 0 0 84.10 56.23
  L 83.86 57.26
  A 0.19 0.19 0.0 0 0 84.01 57.49"
/>
<path stroke="#8d1e1b" vector-effect="non-scaling-stroke" d="
  M 91.8527 53.8883
  A 2.30 1.25 -120.5 0 0 91.9430 56.5044
  A 2.30 1.25 -120.5 0 0 94.1873 57.8517
  A 2.30 1.25 -120.5 0 0 94.0970 55.2356
  A 2.30 1.25 -120.5 0 0 91.8527 53.8883"
/>
<path stroke="#a38f8a" vector-effect="non-scaling-stroke" d="
  M 82.56 47.22
  Q 81.14 48.39 79.98 48.25
  Q 76.68 47.86 74.50 49.69"
/>
<path stroke="#dcdcd8" vector-effect="non-scaling-stroke" d="
  M 74.50 49.69
  L 72.87 47.18
  A 1.09 1.09 0.0 0 0 71.99 46.68
  L 67.56 46.48
  A 1.02 0.99 -63.3 0 0 66.85 46.73
  Q 65.89 47.59 64.71 47.92"
/>
<path stroke="#806b63" vector-effect="non-scaling-stroke" d="
  M 74.50 49.69
  Q 72.68 47.65 71.98 48.74
  Q 71.14 50.05 72.36 52.84"
/>
<path stroke="#7a7060" vector-effect="non-scaling-stroke" d="
  M 70.80 54.01
  Q 67.26 54.67 67.27 52.22"
/>
<path stroke="#5d5347" vector-effect="non-scaling-stroke" d="
  M 63.53 75.01
  L 57.66 79.11"
/>
<path stroke="#785a26" vector-effect="non-scaling-stroke" d="
  M 57.66 79.11
  Q 56.47 79.00 54.57 77.16"
/>
<path stroke="#9c9c98" vector-effect="non-scaling-stroke" d="
  M 108.60 94.13
  Q 109.93 91.33 107.62 91.73"
/>
<path stroke="#4c4842" vector-effect="non-scaling-stroke" d="
  M 107.62 91.73
  Q 109.89 86.48 108.57 81.08"
/>
<path stroke="#9a865f" vector-effect="non-scaling-stroke" d="
  M 78.34 79.73
  Q 81.13 86.11 78.59 94.08"
/>
<path stroke="#4c4842" vector-effect="non-scaling-stroke" d="
  M 78.59 94.08
  Q 77.26 94.72 75.71 95.87
  Q 73.98 97.17 72.85 97.60
  Q 64.86 100.62 57.39 93.78"
/>
<path stroke="#9a865f" vector-effect="non-scaling-stroke" d="
  M 57.39 93.78
  Q 56.15 89.09 56.14 85.98
  Q 56.13 82.47 57.66 79.11"
/>
<path stroke="#9a865f" vector-effect="non-scaling-stroke" d="
  M 68.4078 79.1793
  A 7.27 6.26 -87.1 0 0 61.7880 86.1233
  A 7.27 6.26 -87.1 0 0 67.6722 93.7007
  A 7.27 6.26 -87.1 0 0 74.2920 86.7567
  A 7.27 6.26 -87.1 0 0 68.4078 79.1793"
/>
<path stroke="#4c4842" vector-effect="non-scaling-stroke" d="
  M 102.72 92.63
  Q 103.18 95.12 104.73 97.13
  Q 104.95 97.43 104.94 97.65
  Q 104.93 97.91 104.78 98.20"
/>
<path stroke="#534a42" vector-effect="non-scaling-stroke" d="
  M 104.44 98.25
  Q 102.35 97.77 100.91 98.85"
/>
<path stroke="#9a865f" vector-effect="non-scaling-stroke" d="
  M 100.91 98.85
  Q 99.11 99.04 97.77 98.21"
/>
<path stroke="#4c4842" vector-effect="non-scaling-stroke" d="
  M 97.77 98.21
  Q 97.25 95.51 95.28 94.06"
/>
<path stroke="#9a865f" vector-effect="non-scaling-stroke" d="
  M 95.28 94.06
  Q 95.32 89.72 90.80 90.24
  A 0.79 0.77 -84.7 0 0 90.15 90.79
  Q 89.67 92.37 90.28 93.97"
/>
<path stroke="#4c4842" vector-effect="non-scaling-stroke" d="
  M 90.28 93.97
  Q 89.65 95.97 90.37 98.08"
/>
<path stroke="#9a865f" vector-effect="non-scaling-stroke" d="
  M 90.37 98.08
  Q 87.12 98.78 83.91 98.09"
/>
<path stroke="#4c4842" vector-effect="non-scaling-stroke" d="
  M 83.91 98.09
  Q 84.24 95.57 83.65 93.88"
/>
<path stroke="#9a865f" vector-effect="non-scaling-stroke" d="
  M 83.65 93.88
  L 83.86 80.02"
/>
<path stroke="#9a865f" vector-effect="non-scaling-stroke" d="
  M 90.00 80.26
  L 89.92 84.80
  A 1.27 1.27 0.0 0 0 91.16 86.09
  L 92.99 86.13
  A 3.06 2.85 1.1 0 0 96.11 83.34
  L 96.13 81.96
  A 3.06 2.85 1.1 0 0 93.13 79.05
  L 91.30 79.02
  A 1.27 1.27 0.0 0 0 90.00 80.26"
/>
<path stroke="#664e21" vector-effect="non-scaling-stroke" d="
  M 57.39 93.78
  Q 55.42 94.14 54.35 93.59
  A 1.14 1.11 88.8 0 1 53.86 93.11
  L 46.47 79.72"
/>
<path stroke="#664e21" vector-effect="non-scaling-stroke" d="
  M 83.65 93.88
  L 78.59 94.08"
/>
<path stroke="#664e21" vector-effect="non-scaling-stroke" d="
  M 83.91 98.09
  Q 75.95 97.70 68.13 98.78
  A 3.20 3.13 45.6 0 1 67.13 98.76
  Q 60.40 97.56 53.84 98.38"
/>
<path stroke="#69645b" vector-effect="non-scaling-stroke" d="
  M 50.42 95.45
  L 47.49 89.99"
/>
<path stroke="#69645b" vector-effect="non-scaling-stroke" d="
  M 107.62 91.73
  Q 104.88 95.48 106.59 98.16"
/>
<path stroke="#664e21" vector-effect="non-scaling-stroke" d="
  M 95.28 94.06
  L 90.28 93.97"
/>
<path stroke="#664e21" vector-effect="non-scaling-stroke" d="
  M 97.77 98.21
  L 90.37 98.08"
/>
<path stroke="#6e5121" vector-effect="non-scaling-stroke" d="
  M 100.91 98.85
  Q 103.05 99.99 104.20 102.28"
/>
</g>
<path fill="#7f7f7f" d="
  M 44.38 0.00
  Q 47.55 3.72 49.46 8.21
  A 2.98 2.98 0.0 0 1 49.34 10.79
  L 43.89 20.94
  L 39.37 29.02
  Q 34.83 35.16 31.50 42.57
  Q 29.87 45.83 26.68 50.90
  Q 25.96 52.04 26.26 53.26
  L 26.18 53.63
  A 1.00 1.00 0.0 0 0 26.28 54.35
  Q 29.93 60.98 32.37 64.86
  Q 32.71 65.39 33.43 65.79
  L 33.83 67.42
  L 37.47 73.88
  A 2.21 2.20 74.1 0 0 39.45 74.99
  L 44.28 74.81
  L 46.64 74.58
  Q 50.25 74.99 53.14 75.12
  Q 54.41 75.18 54.57 77.16
  Q 54.76 78.09 54.61 78.68
  A 0.79 0.79 0.0 0 1 53.90 79.27
  L 46.47 79.72
  Q 44.90 84.46 47.49 89.99
  Q 46.55 89.60 46.41 89.89
  Q 45.97 90.86 46.12 91.86
  L 45.97 96.61
  A 1.56 1.55 -87.7 0 1 44.34 98.12
  L 41.40 97.99
  A 1.50 1.50 0.0 0 1 39.96 96.46
  Q 40.09 86.66 39.95 81.09
  C 39.87 78.32 35.40 78.87 33.46 78.97
  A 1.56 1.55 89.5 0 1 31.82 77.35
  L 31.88 76.21
  A 1.27 1.27 0.0 0 1 33.21 74.99
  L 36.04 75.11
  A 0.49 0.49 0.0 0 0 36.47 74.36
  C 34.35 71.02 31.99 68.03 30.52 64.73
  Q 28.06 59.21 25.14 55.40
  A 1.51 1.50 27.4 0 1 24.83 54.43
  L 25.03 50.02
  A 1.07 0.99 66.1 0 1 25.21 49.50
  C 28.19 45.41 29.32 42.17 32.25 38.06
  Q 33.33 36.54 35.22 32.97
  Q 38.69 26.42 42.44 20.69
  Q 42.74 20.23 43.05 19.14
  A 1.29 1.03 75.6 0 1 43.19 18.83
  L 48.33 10.60
  A 2.33 2.32 44.6 0 0 48.31 8.11
  L 43.13 0.00
  L 44.38 0.00
  Z"
/>
<path fill="#b48c3e" d="
  M 103.73 0.00
  Q 104.97 0.13 104.07 3.39
  Q 103.03 4.01 102.71 5.49
  A 1.36 1.34 -13.8 0 1 102.24 6.25
  Q 100.97 7.30 99.25 7.29
  Q 79.71 7.13 61.25 7.18
  Q 58.41 7.19 55.50 6.98
  L 54.92 2.40
  A 1.10 1.08 1.5 0 0 54.02 1.47
  Q 53.94 1.45 53.85 1.43
  A 0.52 0.51 33.1 0 1 53.66 0.54
  Q 54.06 0.21 54.73 0.00
  L 103.73 0.00
  Z"
/>
<path fill="#b9b8b1" d="
  M 112.83 0.00
  L 107.57 8.97
  A 0.87 0.86 -44.7 0 0 107.56 9.81
  Q 113.06 19.86 118.67 29.06
  Q 119.62 30.62 119.77 32.87
  A 0.22 0.22 0.0 0 1 119.36 32.99
  L 105.60 8.74
  Q 106.67 7.64 107.07 6.76
  L 111.70 0.00
  L 112.83 0.00
  Z"
/>
<path fill="#271504" d="
  M 104.07 3.39
  L 104.42 5.96
  A 0.82 0.82 0.0 0 0 104.73 6.51
  Q 105.56 7.17 107.07 6.76
  Q 106.67 7.64 105.60 8.74
  Q 104.54 7.65 102.91 8.49
  A 0.91 0.90 -11.1 0 0 102.41 9.23
  L 102.18 11.98
  L 55.31 11.98
  L 55.50 6.98
  Q 58.41 7.19 61.25 7.18
  Q 79.71 7.13 99.25 7.29
  Q 100.97 7.30 102.24 6.25
  A 1.36 1.34 -13.8 0 0 102.71 5.49
  Q 103.03 4.01 104.07 3.39
  Z"
/>
<path fill="#b48c3e" d="
  M 102.18 11.98
  L 102.88 19.64
  A 0.71 0.70 -0.9 0 0 103.55 20.28
  L 105.57 20.37
  A 0.86 0.86 0.0 0 1 106.39 21.14
  L 107.00 26.63
  A 0.57 0.57 0.0 0 0 107.59 27.14
  C 110.58 27.05 110.68 30.87 111.13 33.54
  A 0.89 0.89 0.0 0 0 111.72 34.23
  Q 112.67 34.55 112.86 35.58
  C 114.34 43.73 113.72 49.15 113.62 60.89
  C 113.59 65.31 112.90 69.84 112.25 74.29
  Q 108.03 74.53 108.57 81.08
  L 102.72 92.63
  L 98.88 89.13
  A 1.17 1.17 0.0 0 1 98.92 87.37
  C 101.94 84.86 103.30 78.55 98.95 76.57
  Q 95.31 74.90 91.88 74.57
  L 84.76 66.77
  A 2.25 2.23 85.0 0 0 84.31 66.39
  Q 82.78 65.40 81.73 64.21
  A 0.64 0.64 0.0 0 1 82.21 63.14
  L 94.22 63.00
  A 2.65 1.52 33.6 0 1 94.53 63.02
  Q 98.77 63.75 100.56 62.79
  Q 104.63 60.59 108.41 57.68
  A 0.61 0.60 48.5 0 0 108.46 56.77
  L 96.69 45.32
  A 3.30 3.30 0.0 0 1 96.06 44.50
  Q 94.75 42.13 91.78 36.34
  Q 91.22 35.25 89.07 34.38
  A 0.51 0.50 -76.1 0 0 88.38 34.80
  Q 88.31 35.44 88.11 35.68
  A 1.37 1.36 -71.8 0 1 87.21 36.14
  L 83.98 36.44
  A 1.10 1.09 61.3 0 1 83.24 36.22
  Q 82.31 35.49 82.16 35.08
  A 0.86 0.83 -43.4 0 0 80.61 35.06
  Q 79.93 36.51 81.62 38.18
  Q 78.19 38.66 75.05 37.80
  A 2.98 2.96 -49.2 0 0 73.06 37.95
  L 72.04 38.40
  A 2.39 2.37 -42.9 0 1 69.98 38.33
  C 66.32 36.28 65.67 40.16 62.28 39.22
  A 1.33 1.32 35.9 0 0 61.20 39.39
  C 59.42 40.53 59.64 41.21 57.22 40.85
  A 1.05 1.04 -70.6 0 0 56.15 41.37
  L 54.20 44.74
  A 0.45 0.45 0.0 0 0 54.30 45.31
  L 56.93 47.45
  A 1.99 1.99 0.0 0 0 58.19 47.90
  L 64.71 47.92
  L 66.84 48.01
  A 1.44 1.43 -78.4 0 1 68.12 49.96
  L 67.27 52.22
  Q 67.46 51.43 67.26 50.85
  A 0.46 0.45 62.0 0 0 66.56 50.63
  Q 64.32 52.27 63.45 54.76
  A 3.39 3.21 -21.7 0 1 63.20 55.30
  Q 56.80 66.22 46.64 74.58
  L 44.28 74.81
  Q 44.88 71.18 43.28 68.25
  A 1.00 0.99 -10.4 0 0 42.55 67.75
  L 38.88 67.24
  Q 38.04 63.84 35.84 61.71
  Q 34.99 58.24 35.34 54.08
  A 0.42 0.42 0.0 0 0 34.87 53.62
  Q 32.95 53.87 30.88 53.20
  L 36.72 42.72
  L 39.62 42.19
  A 1.86 1.85 87.2 0 0 41.12 40.52
  L 41.68 33.93
  L 49.36 20.75
  L 52.04 20.21
  A 2.43 2.42 -89.6 0 0 53.94 18.33
  L 55.31 11.98
  L 102.18 11.98
  Z
  M 83.58 19.59
  A 0.57 0.57 0.0 0 0 82.64 19.83
  C 81.66 23.12 77.67 21.37 75.18 22.30
  Q 70.76 23.97 70.55 28.70
  A 0.71 0.70 2.8 0 0 71.23 29.44
  L 82.87 29.97
  A 0.67 0.55 -50.9 0 0 83.11 29.92
  Q 85.89 28.69 88.98 29.99
  A 0.21 0.18 49.7 0 0 89.10 30.01
  L 99.16 28.90
  A 1.89 1.89 0.0 0 0 100.73 26.38
  L 99.24 22.23
  A 1.24 1.23 -18.6 0 0 97.70 21.47
  Q 93.73 22.75 92.15 20.27
  A 1.65 1.64 58.6 0 0 89.95 19.73
  L 87.24 21.30
  A 1.89 1.88 52.4 0 1 84.98 21.00
  L 83.58 19.59
  Z"
/>
<path fill="#fffffe" d="
  M 83.58 19.59
  L 84.98 21.00
  A 1.89 1.88 52.4 0 0 87.24 21.30
  L 89.95 19.73
  A 1.65 1.64 58.6 0 1 92.15 20.27
  Q 93.73 22.75 97.70 21.47
  A 1.24 1.23 -18.6 0 1 99.24 22.23
  L 100.73 26.38
  A 1.89 1.89 0.0 0 1 99.16 28.90
  L 89.10 30.01
  A 0.21 0.18 49.7 0 1 88.98 29.99
  Q 85.89 28.69 83.11 29.92
  A 0.67 0.55 -50.9 0 1 82.87 29.97
  L 71.23 29.44
  A 0.71 0.70 2.8 0 1 70.55 28.70
  Q 70.76 23.97 75.18 22.30
  C 77.67 21.37 81.66 23.12 82.64 19.83
  A 0.57 0.57 0.0 0 1 83.58 19.59
  Z"
/>
<path fill="#181004" d="
  M 49.36 20.75
  L 41.68 33.93
  Q 41.69 31.55 41.57 29.76
  Q 41.50 28.71 39.37 29.02
  L 43.89 20.94
  L 49.36 20.75
  Z"
/>
<path fill="#d41e21" d="
  M 91.88 74.57
  L 85.30 75.03
  A 1.18 1.17 0.6 0 0 84.21 76.09
  L 83.86 80.02
  Q 80.19 80.95 78.34 79.73
  C 74.03 74.60 70.25 74.41 63.53 75.01
  Q 67.21 68.44 68.43 61.61
  C 68.72 59.99 68.29 58.11 68.46 56.42
  A 1.21 1.21 0.0 0 1 69.07 55.48
  Q 70.14 54.87 70.80 54.01
  Q 72.53 53.76 72.36 52.84
  Q 75.69 55.41 77.76 60.70
  A 2.14 2.12 -29.6 0 1 77.07 63.16
  Q 76.19 63.84 75.75 65.12
  A 1.47 1.38 4.9 0 0 77.38 66.93
  C 79.17 66.68 79.63 65.20 80.49 63.29
  A 2.24 2.23 83.1 0 1 81.12 62.48
  Q 81.84 61.89 82.38 61.90
  A 0.39 0.38 78.8 0 0 82.74 61.35
  L 81.95 59.55
  A 2.60 2.58 30.7 0 1 81.75 58.78
  Q 81.41 55.43 83.16 50.24
  Q 83.63 48.84 82.56 47.22
  Q 83.53 46.24 84.50 47.12
  A 0.96 0.92 -76.6 0 0 86.01 46.15
  Q 85.36 43.44 85.42 40.94
  A 0.79 0.78 -80.5 0 0 84.88 40.18
  Q 82.94 39.57 81.62 38.18
  Q 79.93 36.51 80.61 35.06
  A 0.86 0.83 -43.4 0 1 82.16 35.08
  Q 82.31 35.49 83.24 36.22
  A 1.10 1.09 61.3 0 0 83.98 36.44
  L 87.21 36.14
  A 1.37 1.36 -71.8 0 0 88.11 35.68
  Q 88.31 35.44 88.38 34.80
  A 0.51 0.50 -76.1 0 1 89.07 34.38
  Q 91.22 35.25 91.78 36.34
  Q 94.75 42.13 96.06 44.50
  A 3.30 3.30 0.0 0 0 96.69 45.32
  L 108.46 56.77
  A 0.61 0.60 48.5 0 1 108.41 57.68
  Q 104.63 60.59 100.56 62.79
  Q 98.77 63.75 94.53 63.02
  A 2.65 1.52 33.6 0 0 94.22 63.00
  L 82.21 63.14
  A 0.64 0.64 0.0 0 0 81.73 64.21
  Q 82.78 65.40 84.31 66.39
  A 2.25 2.23 85.0 0 1 84.76 66.77
  L 91.88 74.57
  Z
  M 84.01 57.49
  L 87.18 58.22
  A 0.19 0.19 0.0 0 0 87.41 58.08
  L 87.65 57.05
  A 6.36 1.77 -77.0 0 0 87.35 50.46
  L 87.26 50.44
  A 6.36 1.77 -77.0 0 0 84.10 56.23
  L 83.86 57.26
  A 0.19 0.19 0.0 0 0 84.01 57.49
  Z
  M 91.8527 53.8883
  A 2.30 1.25 -120.5 0 0 91.9430 56.5044
  A 2.30 1.25 -120.5 0 0 94.1873 57.8517
  A 2.30 1.25 -120.5 0 0 94.0970 55.2356
  A 2.30 1.25 -120.5 0 0 91.8527 53.8883
  Z"
/>
<path fill="#fffffe" d="
  M 81.62 38.18
  Q 82.94 39.57 84.88 40.18
  A 0.79 0.78 -80.5 0 1 85.42 40.94
  Q 85.36 43.44 86.01 46.15
  A 0.96 0.92 -76.6 0 1 84.50 47.12
  Q 83.53 46.24 82.56 47.22
  Q 81.14 48.39 79.98 48.25
  Q 76.68 47.86 74.50 49.69
  L 72.87 47.18
  A 1.09 1.09 0.0 0 0 71.99 46.68
  L 67.56 46.48
  A 1.02 0.99 -63.3 0 0 66.85 46.73
  Q 65.89 47.59 64.71 47.92
  L 58.19 47.90
  A 1.99 1.99 0.0 0 1 56.93 47.45
  L 54.30 45.31
  A 0.45 0.45 0.0 0 1 54.20 44.74
  L 56.15 41.37
  A 1.05 1.04 -70.6 0 1 57.22 40.85
  C 59.64 41.21 59.42 40.53 61.20 39.39
  A 1.33 1.32 35.9 0 1 62.28 39.22
  C 65.67 40.16 66.32 36.28 69.98 38.33
  A 2.39 2.37 -42.9 0 0 72.04 38.40
  L 73.06 37.95
  A 2.98 2.96 -49.2 0 1 75.05 37.80
  Q 78.19 38.66 81.62 38.18
  Z"
/>
<path fill="#271504" d="
  M 36.72 42.72
  L 30.88 53.20
  L 26.26 53.26
  Q 25.96 52.04 26.68 50.90
  Q 29.87 45.83 31.50 42.57
  L 36.72 42.72
  Z"
/>
<path fill="#b9b8b1" d="
  M 74.50 49.69
  Q 72.68 47.65 71.98 48.74
  Q 71.14 50.05 72.36 52.84
  Q 72.53 53.76 70.80 54.01
  Q 67.26 54.67 67.27 52.22
  L 68.12 49.96
  A 1.44 1.43 -78.4 0 0 66.84 48.01
  L 64.71 47.92
  Q 65.89 47.59 66.85 46.73
  A 1.02 0.99 -63.3 0 1 67.56 46.48
  L 71.99 46.68
  A 1.09 1.09 0.0 0 1 72.87 47.18
  L 74.50 49.69
  Z"
/>
<path fill="#461e15" d="
  M 82.56 47.22
  Q 83.63 48.84 83.16 50.24
  Q 81.41 55.43 81.75 58.78
  A 2.60 2.58 30.7 0 0 81.95 59.55
  L 82.74 61.35
  A 0.39 0.38 78.8 0 1 82.38 61.90
  Q 81.84 61.89 81.12 62.48
  A 2.24 2.23 83.1 0 0 80.49 63.29
  C 79.63 65.20 79.17 66.68 77.38 66.93
  A 1.47 1.38 4.9 0 1 75.75 65.12
  Q 76.19 63.84 77.07 63.16
  A 2.14 2.12 -29.6 0 0 77.76 60.70
  Q 75.69 55.41 72.36 52.84
  Q 71.14 50.05 71.98 48.74
  Q 72.68 47.65 74.50 49.69
  Q 76.68 47.86 79.98 48.25
  Q 81.14 48.39 82.56 47.22
  Z"
/>
<path fill="#78040d" d="
  M 84.01 57.49
  A 0.19 0.19 0.0 0 1 83.86 57.26
  L 84.10 56.23
  A 6.36 1.77 -77.0 0 1 87.26 50.44
  L 87.35 50.46
  A 6.36 1.77 -77.0 0 1 87.65 57.05
  L 87.41 58.08
  A 0.19 0.19 0.0 0 1 87.18 58.22
  L 84.01 57.49
  Z"
/>
<path fill="#3b270e" d="
  M 67.27 52.22
  Q 67.26 54.67 70.80 54.01
  Q 70.14 54.87 69.07 55.48
  A 1.21 1.21 0.0 0 0 68.46 56.42
  C 68.29 58.11 68.72 59.99 68.43 61.61
  Q 67.21 68.44 63.53 75.01
  L 57.66 79.11
  Q 56.47 79.00 54.57 77.16
  Q 54.41 75.18 53.14 75.12
  Q 50.25 74.99 46.64 74.58
  Q 56.80 66.22 63.20 55.30
  A 3.39 3.21 -21.7 0 0 63.45 54.76
  Q 64.32 52.27 66.56 50.63
  A 0.46 0.45 62.0 0 1 67.26 50.85
  Q 67.46 51.43 67.27 52.22
  Z"
/>
<ellipse fill="#461e15" cx="0.00" cy="0.00" transform="translate(93.02,55.87) rotate(-120.5)" rx="2.30" ry="1.25"/>
<path fill="#3b270e" d="
  M 38.88 67.24
  L 33.83 67.42
  L 33.43 65.79
  Q 34.74 65.89 35.42 65.27
  A 0.80 0.78 -20.5 0 0 35.69 64.70
  L 35.84 61.71
  Q 38.04 63.84 38.88 67.24
  Z"
/>
<path fill="#7f7f7f" d="
  M 120.00 77.88
  L 120.00 78.80
  Q 118.95 79.17 118.93 77.43
  A 0.42 0.41 -27.0 0 0 118.18 77.19
  Q 116.87 78.94 115.77 80.84
  Q 114.99 82.18 114.97 85.01
  Q 114.95 90.86 114.91 96.76
  A 1.40 1.40 0.0 0 1 113.44 98.15
  L 110.33 98.01
  A 1.27 1.27 0.0 0 1 109.12 96.59
  Q 109.28 95.17 108.60 94.13
  Q 109.93 91.33 107.62 91.73
  Q 109.89 86.48 108.57 81.08
  Q 108.03 74.53 112.25 74.29
  Q 112.91 74.74 114.21 75.02
  A 0.85 0.84 -87.2 0 1 114.86 75.75
  L 115.20 78.84
  A 0.24 0.24 0.0 0 0 115.65 78.93
  L 119.52 72.24
  A 0.13 0.12 53.4 0 1 119.75 72.28
  Q 119.95 73.05 119.60 73.89
  A 1.34 1.31 52.6 0 0 119.51 74.62
  L 120.00 77.88
  Z"
/>
<path fill="#7f7f7f" d="
  M 78.34 79.73
  Q 81.13 86.11 78.59 94.08
  Q 77.26 94.72 75.71 95.87
  Q 73.98 97.17 72.85 97.60
  Q 64.86 100.62 57.39 93.78
  Q 56.15 89.09 56.14 85.98
  Q 56.13 82.47 57.66 79.11
  L 63.53 75.01
  C 70.25 74.41 74.03 74.60 78.34 79.73
  Z
  M 68.4078 79.1793
  A 7.27 6.26 -87.1 0 0 61.7880 86.1233
  A 7.27 6.26 -87.1 0 0 67.6722 93.7007
  A 7.27 6.26 -87.1 0 0 74.2920 86.7567
  A 7.27 6.26 -87.1 0 0 68.4078 79.1793
  Z"
/>
<path fill="#7f7f7f" d="
  M 91.88 74.57
  Q 95.31 74.90 98.95 76.57
  C 103.30 78.55 101.94 84.86 98.92 87.37
  A 1.17 1.17 0.0 0 0 98.88 89.13
  L 102.72 92.63
  Q 103.18 95.12 104.73 97.13
  Q 104.95 97.43 104.94 97.65
  Q 104.93 97.91 104.78 98.20
  Q 104.61 98.22 104.44 98.25
  Q 102.35 97.77 100.91 98.85
  Q 99.11 99.04 97.77 98.21
  Q 97.25 95.51 95.28 94.06
  Q 95.32 89.72 90.80 90.24
  A 0.79 0.77 -84.7 0 0 90.15 90.79
  Q 89.67 92.37 90.28 93.97
  Q 89.65 95.97 90.37 98.08
  Q 87.12 98.78 83.91 98.09
  Q 84.24 95.57 83.65 93.88
  L 83.86 80.02
  L 84.21 76.09
  A 1.18 1.17 0.6 0 1 85.30 75.03
  L 91.88 74.57
  Z
  M 90.00 80.26
  L 89.92 84.80
  A 1.27 1.27 0.0 0 0 91.16 86.09
  L 92.99 86.13
  A 3.06 2.85 1.1 0 0 96.11 83.34
  L 96.13 81.96
  A 3.06 2.85 1.1 0 0 93.13 79.05
  L 91.30 79.02
  A 1.27 1.27 0.0 0 0 90.00 80.26
  Z"
/>
<path fill="#7f7f7f" d="
  M 0.00 78.58
  L 0.00 75.86
  Q 0.53 75.05 2.25 75.01
  Q 5.79 74.93 6.66 75.25
  A 0.75 0.74 -79.9 0 1 7.14 75.95
  L 7.12 77.52
  A 1.42 1.41 86.7 0 1 5.90 78.90
  Q 2.41 79.36 0.00 78.58
  Z"
/>
<path fill="#7f7f7f" d="
  M 17.05 86.54
  C 17.09 94.35 24.71 95.43 30.23 92.23
  A 0.59 0.59 0.0 0 1 31.11 92.77
  L 30.98 95.81
  A 1.19 1.19 0.0 0 1 30.20 96.87
  C 21.95 99.89 11.09 97.42 11.03 86.57
  C 10.97 75.72 21.81 73.14 30.09 76.06
  A 1.19 1.19 0.0 0 1 30.88 77.11
  L 31.04 80.15
  A 0.59 0.59 0.0 0 1 30.16 80.70
  C 24.61 77.56 17.00 78.72 17.05 86.54
  Z"
/>
<path fill="#b48c3e" d="
  M 57.66 79.11
  Q 56.13 82.47 56.14 85.98
  Q 56.15 89.09 57.39 93.78
  Q 55.42 94.14 54.35 93.59
  A 1.14 1.11 88.8 0 1 53.86 93.11
  L 46.47 79.72
  L 53.90 79.27
  A 0.79 0.79 0.0 0 0 54.61 78.68
  Q 54.76 78.09 54.57 77.16
  Q 56.47 79.00 57.66 79.11
  Z"
/>
<ellipse fill="#b48c3e" cx="0.00" cy="0.00" transform="translate(68.04,86.44) rotate(-87.1)" rx="7.27" ry="6.26"/>
<path fill="#b48c3e" d="
  M 90.00 80.26
  A 1.27 1.27 0.0 0 1 91.30 79.02
  L 93.13 79.05
  A 3.06 2.85 1.1 0 1 96.13 81.96
  L 96.11 83.34
  A 3.06 2.85 1.1 0 1 92.99 86.13
  L 91.16 86.09
  A 1.27 1.27 0.0 0 1 89.92 84.80
  L 90.00 80.26
  Z"
/>
<path fill="#b48c3e" d="
  M 83.86 80.02
  L 83.65 93.88
  L 78.59 94.08
  Q 81.13 86.11 78.34 79.73
  Q 80.19 80.95 83.86 80.02
  Z"
/>
<path fill="#181004" d="
  M 46.47 79.72
  L 53.86 93.11
  A 1.14 1.11 88.8 0 0 54.35 93.59
  Q 55.42 94.14 57.39 93.78
  Q 64.86 100.62 72.85 97.60
  Q 73.98 97.17 75.71 95.87
  Q 77.26 94.72 78.59 94.08
  L 83.65 93.88
  Q 84.24 95.57 83.91 98.09
  Q 75.95 97.70 68.13 98.78
  A 3.20 3.13 45.6 0 1 67.13 98.76
  Q 60.40 97.56 53.84 98.38
  L 53.65 96.06
  A 0.76 0.76 0.0 0 0 53.14 95.40
  Q 51.78 94.93 50.42 95.45
  L 47.49 89.99
  Q 44.90 84.46 46.47 79.72
  Z"
/>
<path fill="#181004" d="
  M 107.62 91.73
  Q 104.88 95.48 106.59 98.16
  Q 105.66 98.43 104.78 98.20
  Q 104.93 97.91 104.94 97.65
  Q 104.95 97.43 104.73 97.13
  Q 103.18 95.12 102.72 92.63
  L 108.57 81.08
  Q 109.89 86.48 107.62 91.73
  Z"
/>
<path fill="#7f7f7f" d="
  M 0.00 87.52
  L 0.00 84.49
  Q 2.96 83.30 5.05 84.11
  A 2.02 2.02 0.0 0 1 4.98 87.91
  Q 2.94 88.61 0.00 87.52
  Z"
/>
<path fill="#b9b8b1" d="
  M 47.49 89.99
  L 50.42 95.45
  L 45.50 103.55
  A 0.33 0.33 0.0 0 1 45.00 103.63
  L 44.87 103.46
  A 0.13 0.13 0.0 0 1 44.86 103.31
  L 48.82 96.10
  A 0.66 0.64 41.7 0 0 48.77 95.40
  L 46.12 91.86
  Q 45.97 90.86 46.41 89.89
  Q 46.55 89.60 47.49 89.99
  Z"
/>
<path fill="#b48c3e" d="
  M 95.28 94.06
  L 90.28 93.97
  Q 89.67 92.37 90.15 90.79
  A 0.79 0.77 -84.7 0 1 90.80 90.24
  Q 95.32 89.72 95.28 94.06
  Z"
/>
<path fill="#b9b8b1" d="
  M 108.60 94.13
  Q 107.33 94.68 106.99 95.44
  Q 106.65 96.21 107.61 97.21
  Q 109.67 99.37 111.16 102.51
  A 0.65 0.63 47.7 0 1 111.14 103.11
  L 110.80 103.69
  A 0.26 0.26 0.0 0 1 110.36 103.71
  L 106.59 98.16
  Q 104.88 95.48 107.62 91.73
  Q 109.93 91.33 108.60 94.13
  Z"
/>
<path fill="#7f7f7f" d="
  M 120.00 93.42
  L 120.00 97.23
  Q 119.93 97.45 119.84 97.60
  A 0.33 0.33 0.0 0 1 119.24 97.50
  Q 118.68 94.99 120.00 93.42
  Z"
/>
<path fill="#7f7f7f" d="
  M 0.00 97.57
  L 0.00 94.38
  Q 2.77 93.64 5.98 94.03
  A 1.19 1.17 -9.4 0 1 6.89 94.67
  Q 7.42 95.73 6.90 97.19
  A 0.88 0.87 -85.3 0 1 6.23 97.76
  Q 3.02 98.37 0.00 97.57
  Z"
/>
<path fill="#181004" d="
  M 95.28 94.06
  Q 97.25 95.51 97.77 98.21
  L 90.37 98.08
  Q 89.65 95.97 90.28 93.97
  L 95.28 94.06
  Z"
/>
<path fill="#b48c3e" d="
  M 83.91 98.09
  Q 87.12 98.78 90.37 98.08
  L 97.77 98.21
  Q 99.11 99.04 100.91 98.85
  Q 103.05 99.99 104.20 102.28
  L 104.28 104.00
  L 53.48 104.00
  L 53.84 98.38
  Q 60.40 97.56 67.13 98.76
  A 3.20 3.13 45.6 0 0 68.13 98.78
  Q 75.95 97.70 83.91 98.09
  Z"
/>
<path fill="#271504" d="
  M 104.44 98.25
  L 104.20 102.28
  Q 103.05 99.99 100.91 98.85
  Q 102.35 97.77 104.44 98.25
  Z"
/>
</svg>
